<?xml version="1.0" encoding="utf-8"?>
<!-- Generator: Adobe Illustrator 21.0.0, SVG Export Plug-In . SVG Version: 6.00 Build 0)  -->
<svg version="1.1" id="Layer_1" xmlns="http://www.w3.org/2000/svg" xmlns:xlink="http://www.w3.org/1999/xlink" x="0px" y="0px"
	 viewBox="0 0 1920 1080" style="enable-background:new 0 0 1920 1080;" xml:space="preserve">
<style type="text/css">
	.st0{fill:#BF1E2D;}
	.st1{fill:#4D4D4E;}
</style>
<g>
	<g>
		<polygon class="st0" points="158,335.5 158,546.3 108.4,335.5 56,335.5 56,698.9 106.4,698.9 106.4,494.8 154.1,698.9 
			206.5,698.9 206.5,335.5 		"/>
	</g>
	<g>
		<path class="st0" d="M334,443.1v-37c0-16.3-7.6-24.5-22.8-24.6h-0.4c-15.1,0-22.6,8.2-22.6,24.6v222.2c0,16.4,7.6,24.6,22.8,24.6
			c15.3,0,23-8.2,23-24.6v-37.4h-21.3v-51.9h73.7v89.3c0,50.9-25.1,76.4-75.4,76.5c-50.1,0-75.2-25.5-75.2-76.5V406.1
			c0-50.9,25.1-76.3,75.2-76.3c50.2,0,75.4,25.4,75.4,76.3v37H334z"/>
		<polygon class="st0" points="1497.9,418.9 1460.9,698.9 1408.1,698.9 1462.2,335.5 1534,335.5 1587.9,698.9 1534.9,698.9 		"/>
		<polygon class="st0" points="1731.3,335.5 1731.3,387.2 1682.2,387.2 1682.2,698.9 1629.8,698.9 1629.8,387.2 1580.7,387.2 
			1580.7,335.5 		"/>
		<polygon class="st0" points="1749.4,698.9 1749.4,335.5 1801.8,335.5 1801.8,647.2 1885.4,647.2 1885.4,698.9 		"/>
		<path class="st1" d="M914.7,44L450.4,209.6l78.5,614.6L914.7,1040l385.7-215.8l78.5-614.6L914.7,44z M1285.7,814.3l-371.1,207.6
			L543.6,814.3l-75.8-594.1L914.7,60.8l446.9,159.5L1285.7,814.3z"/>
		<path class="st1" d="M914.6,83.5L487.3,236l72.2,565.8l39.5,22.1l6.5,3.7l59.7,33.4l3.8,2.1l36.3,20.3l5.4,3l36.5,20.4l4,2.2
			l34.4,19.3l5.4,3l56.4,31.5l1,0.5l24.7,13.8l7.4,4.2l34.2,19.1l7.8-4.4l7.3-4.1l73.6-41.2l14.5-8.1l31.4-17.6l14.5-8.1l31.4-17.6
			l14.5-8.1l17.2-9.6l13-7.3v0l19.3-10.8l9.7-5.4l47.1-26.3l14.5-8.1l39.5-22.1L1342,236L914.6,83.5z M654.5,812.7l-41-23V689.2
			l41-16.9V812.7z M696.2,836L669,820.8V666.3l27.2-11.2V836z M736.6,692.8h-26v-43.6l26-10.7V692.8z M736.6,722.4h-26v-15.2h26
			V722.4z M736.6,752.1h-26v-15.2h26V752.1z M736.6,766.5v92.1l-26-14.5v-77.6H736.6z M710.6,633.5v-34.8h123.1v53.1h-57.3v229.1
			l-25.3-14.2V616.8L710.6,633.5z M804.8,584.2h-65.2v-47.1h65.2V584.2z M763.4,522.6l8.8-20.2l8.8,20.2H763.4z M790.9,666.3h42.8
			v73.3h-26v14.5h26v15.2h-26v14.5h26v15.2h-26v14.5h26V913l-42.8-24V666.3z M848.3,921.1V666.3H873v268.7L848.3,921.1z
			 M914.6,958.2L887.5,943V843h35v110.8L914.6,958.2z M887.5,613.8v-15.2h36.8v-14.5h-36.8v-15.2h36.8v-14.5h-36.8v-15.2h36.8v-14.5
			h-36.8v-15.2h36.8v-14.5h-36.8v-16h115.9v113l-45.9-31.4v373.5L937,945.8v-294h-49.5v-23.5h36.8v-14.5H887.5z M927.3,439.3h36.2
			v25.3h-36.2V439.3z M1003.4,795.2H972v-11.5h31.4V795.2z M972,769.3v-181l31.4,21.5v159.5H972z M1003.4,821.1H972v-11.5h31.4
			V821.1z M1003.4,847.1H972v-11.5h31.4V847.1z M1003.4,873H972v-11.5h31.4V873z M922.5,769.3h-35v-103h35V769.3z M922.5,798.9h-35
			v-15.2h35V798.9z M922.5,828.6h-35v-15.2h35V828.6z M972,926.2v-38.7h31.4v21.1L972,926.2z M1017.8,900.5V619.6l31.4,21.5V883
			L1017.8,900.5z M1063.7,874.9V651l31.4,21.5v184.8L1063.7,874.9z M1063.7,633.5v-65.6h90.5v12.3h-65.2v14.5h65.2v8.2h-65.2v14.5
			h65.2v8.2h-65.2v14.5h65.2v35.8h-29v164.5l-15.7,8.8V664.9L1063.7,633.5z M1154.3,776.2h-14.5V768h14.5V776.2z M1139.8,690.4h14.5
			v63h-14.5V690.4z M1154.3,798.9h-14.5v-8.2h14.5V798.9z M1139.8,813.4h14.5v10.8l-14.5,8.1V813.4z M1168.7,816.1V690.4h47.1v32
			h-32.6v14.5h32.6v52.9L1168.7,816.1z M1235.6,778.7l-5.3,2.9V675.9H1205v-27.8h-14.5v27.8h-21.7V553.4h-68.8v-60.1h-14.5v60.1
			h-36.2v70.2l-31.4-21.5V464.7H978v-39.8h-65.2v39.8H873v187.1h-24.7v-67.6h-29v-61.6h-22.4l-17.4-39.8v-43.5H765v43.5l-17.4,39.8
			h-22.4v61.6h-29v55.3L669,650.7v-23h-14.5v29L599,679.5v102.2l-5.3-2.9l-66.1-518l387.1-138.1l387.1,138.1L1235.6,778.7z"/>
	</g>
	<g>
		<path class="st1" d="M787.1,326c0-11.3,5.6-21,16.9-29c10.5-7.5,15.8-13.8,15.9-18.9v-23.8c0-4.7-2-7-6-7h-0.1c-4,0-6.1,2.3-6.1,7
			v17.5h-20.6v-17.5c0-17.8,8.9-26.8,26.6-26.8c17.8,0,26.7,8.9,26.7,26.8v24.2c0,11.5-5.6,21.3-16.9,29.4
			c-10.5,7.5-15.8,14.1-15.8,19.6v6.1h32.8v19.7h-53.3V326z"/>
	</g>
	<g>
		<path class="st1" d="M906.7,328.5c0,17.8-8.9,26.7-26.7,26.7c-17.8,0-26.6-8.9-26.6-26.7v-74.2c0-17.8,8.9-26.8,26.6-26.8
			c17.8,0,26.7,8.9,26.7,26.8V328.5z M886.1,254.3c0-4.7-2-7-6.1-7h-0.1c-4,0-6,2.3-6,7v74.2c0,4.7,2,7,6.1,7c4.1,0,6.1-2.3,6.1-7
			V254.3z"/>
	</g>
	<g>
		<path class="st1" d="M954.1,229.5v104h16.4v19.7h-53.3v-19.7h16.4v-84.3h-16.4v-19.7H954.1z"/>
	</g>
	<g>
		<path class="st1" d="M981.5,254.3c0-17.8,8.9-26.7,26.7-26.8c17.8,0,26.6,8.9,26.6,26.8v74.2c0,17.8-8.9,26.7-26.7,26.7
			c-17.8,0-26.6-8.9-26.6-26.7v-17.6h20.6v17.6c0,4.6,2,6.9,6.1,7h0.1c4,0,6-2.3,6-7v-26.3c-1.9,1.6-5.4,2.5-10.7,2.5
			c-0.8,0-1.7,0-2.7-0.1c-6.1-0.6-10.8-2.8-14.2-6.5c-3.5-3.8-5.2-10.3-5.2-19.6V254.3z M1014.2,254.3c0-4.7-2-7-6.1-7
			c-4.1,0-6.1,2.3-6.1,7v24.1c0,3.8,0.6,6,1.9,6.5c0.7,0.3,2,0.5,3.9,0.5c0.5,0,1.1,0,1.7-0.1c3.1-0.1,4.7-2.4,4.7-6.9V254.3z"/>
	</g>
</g>
</svg>
